<?xml version="1.0" encoding="iso-8859-1"?>
<!-- Uploaded to: SVG Repo, www.svgrepo.com, Generator: SVG Repo Mixer Tools -->
<svg fill="#000000" height="800px" width="800px" version="1.1" id="Layer_1" xmlns="http://www.w3.org/2000/svg" xmlns:xlink="http://www.w3.org/1999/xlink" 
	 viewBox="0 0 512.012 512.012" xml:space="preserve">
<g>
	<g>
		<path d="M493.304,13.91c-5.973-3.797-13.875-2.125-17.673,3.874c-39.501,61.696-75.776,44.228-130.671,17.877
			c-58.522-28.126-131.422-63.147-224.375,3.123c-5.751,4.096-7.1,12.1-3.004,17.852c4.122,5.743,12.117,7.074,17.843,2.995
			c80.674-57.498,140.578-28.723,198.451-0.896c27.452,13.201,55.373,26.624,82.901,26.624c27.477,0,54.571-13.397,80.401-53.777
			C501.001,25.635,499.252,17.707,493.304,13.91z"/>
	</g>
</g>
<g>
	<g>
		<path d="M509.466,465.033c-4.258-5.675-12.288-6.827-17.937-2.577c-15.027,11.264-34.389,17.297-56.329,20.386V291.883
			l-25.6-20.207v213.376c-41.225,1.434-89.498-4.949-139.588-11.861c-47.804-6.579-96.452-13.303-141.67-13.303
			c-8.832,0-17.391,0.512-25.933,1.075V271.676l-25.6,20.216v171.989c-25.668,3.908-49.664,10.906-70.571,23.45
			c-6.076,3.627-8.047,11.503-4.403,17.553c3.652,6.076,11.571,8.047,17.553,4.403c60.774-36.446,155.477-23.373,247.125-10.726
			c95.377,13.124,185.472,25.574,240.375-15.599C512.538,478.712,513.69,470.691,509.466,465.033z"/>
	</g>
</g>
<g>
	<g>
		<path d="M320.001,242.279h-128v0c-14.14,0-25.6,11.46-25.6,25.6v128c0,14.14,11.46,25.6,25.6,25.6h128
			c14.14,0,25.6-11.46,25.6-25.6v-128C345.601,253.739,334.141,242.279,320.001,242.279z M243.201,395.879h-51.2v-51.2h51.2V395.879
			z M243.201,319.079h-51.2v-51.2h51.2V319.079z M320.001,395.879h-51.2v-51.2h51.2V395.879z M320.001,319.079h-51.2v-51.2h51.2
			V319.079z"/>
	</g>
</g>
<g>
	<g>
		<path d="M507.128,283.435l-243.2-192c-4.651-3.652-11.196-3.652-15.846,0l-68.881,54.374v-44.322c0-14.14-11.46-25.6-25.6-25.6
			h-51.2c-14.14,0-25.6,11.46-25.6,25.6v125.158L4.873,283.427c-5.547,4.378-6.502,12.425-2.125,17.971
			c4.378,5.547,12.424,6.485,17.98,2.133l235.273-185.745l235.273,185.745c2.347,1.852,5.154,2.748,7.927,2.748
			c3.772,0,7.526-1.672,10.052-4.872C513.631,295.86,512.675,287.804,507.128,283.435z M153.601,166.017l-51.2,40.422v-104.96h51.2
			V166.017z"/>
	</g>
</g>
</svg>