<?xml version="1.0" encoding="iso-8859-1"?>
<!-- Uploaded to: SVG Repo, www.svgrepo.com, Generator: SVG Repo Mixer Tools -->
<svg fill="#000000" height="800px" width="800px" version="1.1" id="Layer_1" xmlns="http://www.w3.org/2000/svg" xmlns:xlink="http://www.w3.org/1999/xlink" 
	 viewBox="0 0 512.001 512.001" xml:space="preserve">
<g>
	<g>
		<path d="M213.465,213.472H111.379c-4.405,0-7.975,3.571-7.975,7.975v85.072c0,4.405,3.571,7.975,7.975,7.975h102.086
			c4.405,0,7.975-3.571,7.975-7.975v-85.072C221.441,217.043,217.87,213.472,213.465,213.472z M154.447,298.544h-35.092v-69.121
			h35.092V298.544z M205.49,298.544h-35.092v-69.121h35.092V298.544z"/>
	</g>
</g>
<g>
	<g>
		<path d="M400.623,213.472H298.537c-4.406,0-7.975,3.571-7.975,7.975v85.072c0,4.405,3.57,7.975,7.975,7.975h102.086
			c4.406,0,7.975-3.571,7.975-7.975v-85.072C408.598,217.043,405.028,213.472,400.623,213.472z M341.604,298.544h-35.092v-69.121
			h35.092V298.544z M392.647,298.544h-35.092v-69.121h35.092V298.544z"/>
	</g>
</g>
<g>
	<g>
		<path d="M290.03,102.879h-68.057c-4.405,0-7.975,3.571-7.975,7.975v68.057c0,4.405,3.571,7.975,7.975,7.975h68.057
			c4.406,0,7.975-3.571,7.975-7.975v-68.057C298.005,106.45,294.434,102.879,290.03,102.879z M248.026,170.937h-18.078v-18.078
			h18.078V170.937z M248.026,136.908h-18.078V118.83h18.078V136.908z M282.054,170.937h-18.078v-18.078h18.078V170.937z
			 M282.054,136.908h-18.078V118.83h18.078V136.908z"/>
	</g>
</g>
<g>
	<g>
		<path d="M238.987,409.137c-4.405,0-7.975,3.571-7.975,7.975v8.507c0,4.405,3.571,7.975,7.975,7.975
			c4.405,0,7.975-3.571,7.975-7.975v-8.507C246.962,412.708,243.391,409.137,238.987,409.137z"/>
	</g>
</g>
<g>
	<g>
		<path d="M502.709,494.209h-9.625c5.685-7.166,9.093-16.217,9.093-26.053c0-23.161-18.843-42.004-42.004-42.004
			c-6.261,0-12.202,1.388-17.546,3.855V202.847l36.792,28.908c3.419,2.686,8.515,2.073,11.199-1.344l19.71-25.086
			c2.684-3.417,2.069-8.516-1.344-11.199l-81.48-64.021c-3.463-2.721-8.477-2.12-11.199,1.344
			c-2.721,3.464-2.119,8.477,1.344,11.199l75.21,59.093l-9.856,12.543L260.929,39.798c-2.893-2.272-6.963-2.272-9.856,0
			L28.999,214.285l-9.856-12.543l231.928-182.23c2.902-2.28,6.957-2.28,9.857,0l126.258,99.203c3.461,2.72,8.477,2.119,11.199-1.344
			c2.721-3.463,2.119-8.477-1.344-11.199L270.783,6.97c-8.705-6.838-20.86-6.838-29.566,0L3.017,194.127
			c-3.414,2.683-4.028,7.783-1.344,11.199l19.71,25.085c2.721,3.464,7.735,4.064,11.199,1.344l36.792-28.908V366.07
			c0,4.405,3.571,7.975,7.975,7.975c4.405,0,7.975-3.571,7.975-7.975V190.314L256,56.211l170.675,134.103V442.28
			c0,0.18,0.015,0.356,0.027,0.533c-5.351,7.049-8.534,15.83-8.534,25.343c0,9.836,3.408,18.887,9.093,26.053h-27.756
			c5.685-7.166,9.093-16.217,9.093-26.053c0-23.161-18.843-42.004-42.004-42.004c-23.161,0-42.004,18.843-42.004,42.004
			c0,9.836,3.408,18.887,9.093,26.053h-27.171V349.055c0-4.405-3.57-7.975-7.975-7.975h-85.072c-4.405,0-7.975,3.571-7.975,7.975
			v145.153h-27.171c5.685-7.166,9.093-16.217,9.093-26.053c0-23.161-18.843-42.004-42.004-42.004
			c-23.161,0-42.004,18.843-42.004,42.004c0,9.836,3.408,18.887,9.093,26.053H84.74c5.685-7.166,9.093-16.217,9.093-26.053
			c0-9.551-3.21-18.364-8.601-25.427c0.055-0.379,0.094-0.763,0.094-1.158v-32.965c0-4.405-3.571-7.975-7.975-7.975
			c-4.405,0-7.975,3.571-7.975,7.975v21.401c-5.344-2.467-11.285-3.855-17.546-3.855c-23.161,0-42.004,18.843-42.004,42.004
			c0,9.836,3.408,18.887,9.093,26.053H9.294c-4.405,0-7.975,3.571-7.975,7.975c0,4.405,3.571,7.975,7.975,7.975h493.415
			c4.406,0,7.975-3.571,7.975-7.975C510.684,497.78,507.113,494.209,502.709,494.209z M51.829,494.209
			c-14.365,0-26.053-11.688-26.053-26.053c0-14.365,11.688-26.053,26.053-26.053c14.365,0,26.053,11.688,26.053,26.053
			C77.882,482.521,66.195,494.209,51.829,494.209z M145.408,494.209c-14.365,0-26.053-11.688-26.053-26.053
			c0-14.365,11.688-26.053,26.053-26.053c14.365,0,26.053,11.688,26.053,26.053C171.461,482.521,159.773,494.209,145.408,494.209z
			 M290.561,494.209h-69.121V357.031h69.121V494.209z M366.594,494.209c-14.366,0-26.053-11.688-26.053-26.053
			c0-14.365,11.687-26.053,26.053-26.053c14.367,0,26.053,11.688,26.053,26.053C392.647,482.521,380.961,494.209,366.594,494.209z
			 M460.173,494.209c-14.366,0-26.053-11.688-26.053-26.053c0-14.365,11.687-26.053,26.053-26.053s26.053,11.688,26.053,26.053
			C486.226,482.521,474.539,494.209,460.173,494.209z"/>
	</g>
</g>
</svg>